<svg xmlns="http://www.w3.org/2000/svg" width="260" height="260"><path d="M186.8 93.3l24-.1c10.2 0 18.4-8.3 18.4-18.6l-.1-24.1c0-10.2-8.3-18.5-18.5-18.5l-24 .1c-10.2 0-18.4 8.3-18.4 18.6l.1 24.1c0 10.3 8.3 18.5 18.5 18.5zm11.9-45c7.9 0 14.4 6.4 14.4 14.4s-6.4 14.4-14.3 14.4-14.3-6.4-14.3-14.4c-.1-7.9 6.3-14.4 14.2-14.4zM156.3 259l79.2-.2c13 0 23.6-10.7 23.5-23.7l-.2-79.4c0-13.1-10.6-23.6-23.6-23.6l-79.2.2c-13 0-23.6 10.7-23.5 23.7l.2 79.4c0 13.1 10.5 23.6 23.6 23.6zm40.5-22.7c-22.3.6-38.8-16.4-41.2-35.3 0-.3.2-.5.4-.5h.7c5.8 0 11.5 0 17.3-.1.9 0 1.3.3 1.5 1.2 2.6 9.1 10.9 15.3 20.3 15.2 9.5-.1 17.7-6.4 20.2-15.6.1-.5.3-.9.9-.9h18.4c.3 0 .5.2.4.5-1.9 17.9-17.2 34.9-38.9 35.5zm-14.4-40.8c0-7.4 6-13.4 13.3-13.5 7.4 0 13.4 6 13.4 13.5 0 7.4-5.9 13.4-13.3 13.4s-13.4-5.9-13.4-13.4zm14.6-40.7c21.2.7 36.8 17.4 38.8 35.8-.3 0-.6.1-.8.1-6 0-11.9 0-17.9.1-.7 0-1-.2-1.2-.9-2.5-9-10.7-15.4-19.9-15.5-9.5-.1-17.8 6-20.5 15.1-.1.4-.2.8-.4 1.3-6.6 0-13.1 0-19.6.1 2-19.6 19.1-36.9 41.5-36.1zM23.9 127l79.2-.2c13 0 23.6-10.7 23.5-23.7l-.2-79.4c0-13.1-10.6-23.6-23.6-23.6L23.5.2C10.5.3 0 10.9 0 23.9l.2 79.4C.3 116.4 10.8 127 23.9 127zm40.5-22.8c-22.3.6-38.8-16.4-41.2-35.3 0-.3.2-.5.4-.5h.7c5.8 0 11.5 0 17.3-.1.9 0 1.3.3 1.5 1.2 2.6 9.1 10.9 15.3 20.3 15.2 9.5-.1 17.7-6.4 20.2-15.6.1-.5.3-.9.9-.9h18.4c.3 0 .5.2.4.5-1.9 17.9-17.2 35-38.9 35.5zM50 63.5c0-7.4 6-13.4 13.3-13.5 7.4 0 13.4 6 13.4 13.5 0 7.4-5.9 13.4-13.3 13.4S50 70.9 50 63.5zm14.6-40.8c21.2.7 36.8 17.4 38.8 35.8-.3 0-.6.1-.8.1-6 0-11.9 0-17.9.1-.7 0-1-.2-1.2-.9-2.5-9-10.7-15.4-19.9-15.5-9.5-.1-17.8 6-20.5 15.1-.1.4-.2.8-.4 1.3-6.6 0-13.1 0-19.6.1 2-19.5 19.1-36.8 41.5-36.1zM51.7 225l24-.1c10.2 0 18.4-8.3 18.4-18.6l-.1-24.1c0-10.2-8.3-18.5-18.5-18.5l-24 .1c-10.2 0-18.4 8.3-18.4 18.6l.1 24.1c.1 10.2 8.4 18.5 18.5 18.5zm11.9-45c7.9 0 14.4 6.4 14.4 14.4s-6.4 14.4-14.3 14.4-14.3-6.4-14.3-14.4c-.1-7.9 6.4-14.4 14.2-14.4z" fill="#f9f9f9"/></svg>